<svg width="800" height="800" viewBox="0 0 800 800" fill="none" xmlns="http://www.w3.org/2000/svg">
<path fill-rule="evenodd" clip-rule="evenodd" d="M108.333 233.333C108.333 219.526 119.526 208.333 133.333 208.333H666.667C680.473 208.333 691.667 219.526 691.667 233.333C691.667 247.14 680.473 258.333 666.667 258.333H133.333C119.526 258.333 108.333 247.14 108.333 233.333ZM108.333 400C108.333 386.193 119.526 375 133.333 375H666.667C680.473 375 691.667 386.193 691.667 400C691.667 413.807 680.473 425 666.667 425H133.333C119.526 425 108.333 413.807 108.333 400ZM108.333 566.667C108.333 552.86 119.526 541.667 133.333 541.667H666.667C680.474 541.667 691.667 552.86 691.667 566.667C691.667 580.473 680.474 591.667 666.667 591.667H133.333C119.526 591.667 108.333 580.473 108.333 566.667Z" fill="white"/>
</svg>
