<svg width="90" height="23" viewBox="0 0 90 23" fill="none" xmlns="https://www.w3.org/2000/svg">
<path d="M7.49601 5.664C10.64 5.664 13.232 8.424 13.232 12C13.232 15.576 10.64 18.336 7.49601 18.336C5.88801 18.336 4.71201 17.808 3.92001 16.896V22.2C3.92001 22.584 3.70401 22.8 3.32001 22.8H0.920007C0.536007 22.8 0.320007 22.584 0.320007 22.2V6.6C0.320007 6.216 0.536007 6 0.920007 6H3.32001C3.70401 6 3.92001 6.216 3.92001 6.6V7.128C4.71201 6.216 5.88801 5.664 7.49601 5.664ZM6.77601 14.928C8.43201 14.928 9.63201 13.8 9.63201 12C9.63201 10.2 8.43201 9.072 6.77601 9.072C5.12001 9.072 3.92001 10.2 3.92001 12C3.92001 13.8 5.12001 14.928 6.77601 14.928Z" fill="white" style="mix-blend-mode:multiply"/>
<path d="M15.8731 18C15.4891 18 15.2731 17.784 15.2731 17.4V1.32C15.2731 0.936001 15.4891 0.720001 15.8731 0.720001H18.2731C18.6571 0.720001 18.8731 0.936001 18.8731 1.32V17.4C18.8731 17.784 18.6571 18 18.2731 18H15.8731Z" fill="white" style="mix-blend-mode:multiply"/>
<path d="M26.4755 5.664C29.1155 5.664 31.4675 7.2 31.4675 10.44V17.4C31.4675 17.784 31.2515 18 30.8675 18H28.5635C28.1795 18 27.9635 17.784 27.9635 17.4V17.064C27.3155 17.832 26.3555 18.336 24.8675 18.336C22.7555 18.336 20.9075 17.088 20.9075 14.592C20.9075 12.096 22.7555 10.848 24.8675 10.848C26.3555 10.848 27.3155 11.28 27.9635 11.784V10.68C27.9635 9.504 27.4835 8.976 26.4755 8.976C25.7315 8.976 25.2755 9.264 25.0835 9.672C24.9395 10.008 24.8195 10.2 24.4595 10.2H22.1075C21.7235 10.2 21.4835 9.984 21.5075 9.576C21.8195 6.984 24.0275 5.664 26.4755 5.664ZM26.1395 15.792C27.3155 15.792 27.9635 15.288 27.9635 14.592C27.9635 13.848 27.3155 13.392 26.1395 13.392C25.0355 13.392 24.5075 13.896 24.5075 14.592C24.5075 15.288 25.0355 15.792 26.1395 15.792Z" fill="white" style="mix-blend-mode:multiply"/>
<path d="M40.4904 6.504C40.5864 6.168 40.8264 6 41.1624 6H43.7544C44.1864 6 44.4024 6.24 44.2584 6.672L39.0744 22.32C38.9784 22.656 38.7144 22.8 38.3784 22.8H35.7864C35.3544 22.8 35.1384 22.56 35.2824 22.128L36.7224 17.808L32.4984 6.696C32.3544 6.288 32.5464 6 32.9784 6H35.5704C35.9064 6 36.1224 6.168 36.2424 6.48L38.5224 12.84L40.4904 6.504Z" fill="white" style="mix-blend-mode:multiply"/>
<path d="M51.3328 1.752C48.9328 1.632 47.9008 2.928 47.9008 5.208V6H51.3568C51.5248 6 51.5968 6.096 51.5968 6.24V6.576C51.5968 6.72 51.5248 6.816 51.3568 6.816H47.9008V17.76C47.9008 17.928 47.8288 18 47.6608 18H47.3008C47.1328 18 47.0608 17.928 47.0608 17.76V6.816H45.1888C45.0208 6.816 44.9488 6.72 44.9488 6.576V6.24C44.9488 6.096 45.0208 6 45.1888 6H47.0608V5.208C47.0608 2.472 48.4528 0.792002 51.3568 0.936001C51.5248 0.936001 51.5968 1.056 51.5968 1.2V1.512C51.5968 1.68 51.5008 1.752 51.3328 1.752Z" fill="white" style="mix-blend-mode:multiply"/>
<path d="M58.6576 18.264C55.1776 18.264 52.3696 15.552 52.3696 12.024C52.3696 8.472 55.1776 5.76 58.6576 5.76C62.1376 5.76 64.9216 8.472 64.9216 12.024C64.9216 15.552 62.1376 18.264 58.6576 18.264ZM58.6576 17.472C61.7056 17.472 64.0816 15.072 64.0816 12C64.0816 8.952 61.7056 6.552 58.6576 6.552C55.6096 6.552 53.2336 8.952 53.2336 12C53.2336 15.072 55.6096 17.472 58.6576 17.472Z" fill="white" style="mix-blend-mode:multiply"/>
<path d="M68.3101 18C68.1661 18 68.0701 17.928 68.0701 17.76V0.960001C68.0701 0.816001 68.1661 0.720001 68.3101 0.720001H68.6701C68.8141 0.720001 68.9101 0.816001 68.9101 0.960001V17.76C68.9101 17.928 68.8141 18 68.6701 18H68.3101Z" fill="white" style="mix-blend-mode:multiply"/>
<path d="M73.1617 3.6C73.0177 3.6 72.9217 3.528 72.9217 3.36V1.44C72.9217 1.296 73.0177 1.2 73.1617 1.2H73.5217C73.6657 1.2 73.7617 1.296 73.7617 1.44V3.36C73.7617 3.528 73.6657 3.6 73.5217 3.6H73.1617ZM73.1617 18C73.0177 18 72.9217 17.928 72.9217 17.76V6.24C72.9217 6.096 73.0177 6 73.1617 6H73.5217C73.6657 6 73.7617 6.096 73.7617 6.24V17.76C73.7617 17.928 73.6657 18 73.5217 18H73.1617Z" fill="white" style="mix-blend-mode:multiply"/>
<path d="M83.1733 18.264C79.6933 18.264 76.8853 15.552 76.8853 12.024C76.8853 8.472 79.6933 5.76 83.1733 5.76C86.6533 5.76 89.4373 8.472 89.4373 12.024C89.4373 15.552 86.6533 18.264 83.1733 18.264ZM83.1733 17.472C86.2213 17.472 88.5973 15.072 88.5973 12C88.5973 8.952 86.2213 6.552 83.1733 6.552C80.1253 6.552 77.7493 8.952 77.7493 12C77.7493 15.072 80.1253 17.472 83.1733 17.472Z" fill="white" style="mix-blend-mode:multiply"/>
</svg>
