<svg width="33" height="33" viewBox="0 0 33 33" fill="none" xmlns="http://www.w3.org/2000/svg">
<path fill-rule="evenodd" clip-rule="evenodd" d="M14.6741 32.1458C6.78961 31.2404 0.666656 24.5436 0.666656 16.4166C0.666656 7.67213 7.75548 0.583313 16.5 0.583313C25.2444 0.583313 32.3333 7.67213 32.3333 16.4166C32.3333 24.5811 27.1357 23.9098 22.6964 23.3363C20.136 23.0055 17.8278 22.7074 16.9147 24.156C16.29 25.1465 16.9652 26.3818 17.7933 27.2099C18.828 28.2446 18.828 29.922 17.7933 30.9567C16.9652 31.7848 15.8375 32.2794 14.6741 32.1458ZM15.0512 8.4996C15.0512 9.81126 13.9879 10.8746 12.6762 10.8746C11.3646 10.8746 10.3012 9.81126 10.3012 8.4996C10.3012 7.18792 11.3646 6.1246 12.6762 6.1246C13.9879 6.1246 15.0512 7.18792 15.0512 8.4996ZM7.79166 18C9.10334 18 10.1667 16.9366 10.1667 15.625C10.1667 14.3133 9.10334 13.2499 7.79166 13.2499C6.47998 13.2499 5.41666 14.3133 5.41666 15.625C5.41666 16.9366 6.47998 18 7.79166 18ZM25.2083 18C26.52 18 27.5833 16.9366 27.5833 15.625C27.5833 14.3133 26.52 13.2499 25.2083 13.2499C23.8967 13.2499 22.8333 14.3133 22.8333 15.625C22.8333 16.9366 23.8967 18 25.2083 18ZM20.4583 10.8749C21.77 10.8749 22.8333 9.81163 22.8333 8.49995C22.8333 7.18828 21.77 6.12495 20.4583 6.12495C19.1467 6.12495 18.0833 7.18828 18.0833 8.49995C18.0833 9.81163 19.1467 10.8749 20.4583 10.8749Z" fill="white"/>
</svg>
