<svg width="198" height="198" viewBox="0 0 198 198" fill="none" xmlns="https://www.w3.org/2000/svg">
<path d="M198 99C198 153.676 153.676 198 99 198C44.3238 198 0 153.676 0 99C0 44.3238 44.3238 0 99 0C153.676 0 198 44.3238 198 99Z" fill="#D9D9D9"/>
<path d="M198 99C198 153.676 153.676 198 99 198C44.3238 198 0 153.676 0 99C0 44.3238 44.3238 0 99 0C153.676 0 198 44.3238 198 99Z" fill="#515151"/>
<path d="M98.7451 86.6251C112.38 86.6251 123.433 75.5441 123.433 61.8751C123.433 48.206 112.38 37.1251 98.7451 37.1251C85.1101 37.1251 74.0568 48.206 74.0568 61.8751C74.0568 75.5441 85.1101 86.6251 98.7451 86.6251Z" fill="#121212"/>
<path d="M148.122 133.031C148.122 148.409 148.122 160.875 98.7451 160.875C49.3684 160.875 49.3684 148.409 49.3684 133.031C49.3684 117.654 71.4751 105.188 98.7451 105.188C126.015 105.188 148.122 117.654 148.122 133.031Z" fill="#121212"/>
</svg>
