<svg width="28" height="13" viewBox="0 0 28 13" fill="none" xmlns="https://www.w3.org/2000/svg">
<path d="M0 2.73291C0 1.62834 0.895431 0.73291 2 0.73291H26C27.1046 0.73291 28 1.62834 28 2.73291V10.7329C28 11.8375 27.1046 12.7329 26 12.7329H2C0.895431 12.7329 0 11.8375 0 10.7329V2.73291Z" fill="#737373" fill-opacity="0.5"/>
<path d="M10 6.73291C10 7.83748 9.10457 8.73291 8 8.73291C6.89543 8.73291 6 7.83748 6 6.73291C6 5.62834 6.89543 4.73291 8 4.73291C9.10457 4.73291 10 5.62834 10 6.73291Z" fill="#D9D9D9" fill-opacity="0.75"/>
<path d="M22 6.73291C22 7.83748 21.1046 8.73291 20 8.73291C18.8954 8.73291 18 7.83748 18 6.73291C18 5.62834 18.8954 4.73291 20 4.73291C21.1046 4.73291 22 5.62834 22 6.73291Z" fill="#D9D9D9" fill-opacity="0.75"/>
<path d="M16 6.73291C16 7.83748 15.1046 8.73291 14 8.73291C12.8954 8.73291 12 7.83748 12 6.73291C12 5.62834 12.8954 4.73291 14 4.73291C15.1046 4.73291 16 5.62834 16 6.73291Z" fill="#D9D9D9" fill-opacity="0.75"/>
</svg>
