<svg width="33" height="33" viewBox="0 0 33 33" fill="none" xmlns="https://www.w3.org/2000/svg">
<path d="M32.0799 16.4048C32.0799 25.2413 24.8986 32.4048 16.0399 32.4048C7.18133 32.4048 0 25.2413 0 16.4048C0 7.56823 7.18133 0.404785 16.0399 0.404785C24.8986 0.404785 32.0799 7.56823 32.0799 16.4048Z" fill="#D9D9D9"/>
<path d="M32.0799 16.4048C32.0799 25.2413 24.8986 32.4048 16.0399 32.4048C7.18133 32.4048 0 25.2413 0 16.4048C0 7.56823 7.18133 0.404785 16.0399 0.404785C24.8986 0.404785 32.0799 7.56823 32.0799 16.4048Z" fill="#515151"/>
<path d="M15.9987 14.4048C18.2078 14.4048 19.9987 12.6139 19.9987 10.4048C19.9987 8.19566 18.2078 6.4048 15.9987 6.4048C13.7895 6.4048 11.9987 8.19566 11.9987 10.4048C11.9987 12.6139 13.7895 14.4048 15.9987 14.4048Z" fill="#121212"/>
<path d="M23.9987 21.9048C23.9987 24.3901 23.9987 26.4048 15.9987 26.4048C7.99866 26.4048 7.99866 24.3901 7.99866 21.9048C7.99866 19.4195 11.5804 17.4048 15.9987 17.4048C20.417 17.4048 23.9987 19.4195 23.9987 21.9048Z" fill="#121212"/>
</svg>
