<svg width="193" height="192" viewBox="0 0 193 192" fill="none" xmlns="http://www.w3.org/2000/svg">
<g clip-path="url(#clip0_1240_426)">
<path d="M192.479 96.0001C192.479 149.019 149.392 192 96.2394 192C43.088 192 0 149.019 0 96.0001C0 42.9807 43.088 0 96.2394 0C149.392 0 192.479 42.9807 192.479 96.0001Z" fill="#D9D9D9"/>
<path d="M192.479 96.0001C192.479 149.019 149.392 192 96.2394 192C43.088 192 0 149.019 0 96.0001C0 42.9807 43.088 0 96.2394 0C149.392 0 192.479 42.9807 192.479 96.0001Z" fill="url(#paint0_linear_1240_426)"/>
<path d="M95.9922 84C109.247 84 119.992 73.2546 119.992 60C119.992 46.7452 109.247 36 95.9922 36C82.737 36 71.9922 46.7452 71.9922 60C71.9922 73.2546 82.737 84 95.9922 84Z" fill="#E5E5E5"/>
<path d="M143.992 129C143.992 143.912 143.992 156 95.9924 156C47.9922 156 47.9922 143.912 47.9922 129C47.9922 114.088 69.4826 102 95.9924 102C122.502 102 143.992 114.088 143.992 129Z" fill="#E5E5E5"/>
</g>
<defs>
<linearGradient id="paint0_linear_1240_426" x1="3" y1="72.5713" x2="186" y2="123.571" gradientUnits="userSpaceOnUse">
<stop stop-color="#515151"/>
<stop offset="0.365385" stop-color="#6C676F"/>
<stop offset="0.850962" stop-color="#958A9E"/>
</linearGradient>
<clipPath id="clip0_1240_426">
<rect width="193" height="192" fill="white"/>
</clipPath>
</defs>
</svg>
